<svg width="282" height="281" viewBox="0 0 282 281" fill="none" xmlns="http://www.w3.org/2000/svg">
<g clip-path="url(#clip0)">
<path d="M106.103 0.00535394C98.1142 -0.175076 90.2152 8.49871 93.2945 16.6706C96.1 22.8924 84.4142 26.0978 79.7381 29.021C63.2287 35.339 52.1262 49.5772 39.5531 61.2588C28.6745 72.2625 15.96 82.2338 9.9033 96.9594C5.60061 106.706 3.73967 117.381 3.93186 127.834C4.0772 139.325 6.35725 150.698 9.74104 161.649C9.99796 156.181 7.94514 150.389 9.72864 144.785C13.2702 128.361 22.4087 112.197 36.9539 103.211C43.3402 99.328 51.7167 98.6933 58.2233 102.655C61.3138 103.642 64.4625 103.39 67.3073 102.276L242.364 277.333C247.006 281.975 254.481 281.975 259.123 277.333L270.001 266.455C274.643 261.813 274.643 254.338 270.001 249.696L95.2206 74.9129C98.7055 69.3021 96.8054 62.4092 96.2321 56.2247C97.4174 47.3727 106.103 42.7483 112.227 37.4135C115.664 41.6992 121.163 45.0531 126.755 42.7102C135.289 40.2333 139.419 27.7176 131.989 21.7758C125.118 15.1248 118.674 7.97957 111.516 1.65817C109.797 0.558503 107.95 0.0452069 106.106 0.00357974L106.103 0.00535394ZM234.455 8.84217C233.864 8.84245 233.272 8.8539 232.681 8.87651C211.96 9.66842 194.172 23.8654 188.807 43.8941C186.616 52.147 186.7 60.839 189.051 69.0479L144.085 114.014L171.722 141.651L214.425 98.9461C216.942 100.13 219.559 101.09 222.245 101.815C247.475 108.575 273.406 93.6026 280.168 68.3746C281.229 64.3854 281.764 60.2743 281.758 56.1463L247.551 75.8965L223.905 34.941L258.076 15.2129C254.516 13.1394 250.7 11.5401 246.726 10.4552C242.722 9.38214 238.596 8.84101 234.455 8.84358L234.455 8.84217ZM106.678 151.421L52.8481 205.252C51.647 204.784 50.4235 204.377 49.1821 204.03C28.3321 198.444 6.90023 210.817 1.31514 231.667C0.43764 234.964 -0.0044093 238.362 0.000219076 241.773L28.27 225.451L47.8122 259.3L19.5706 275.605C22.513 277.319 25.6665 278.64 28.9516 279.536C49.8018 285.123 71.2334 272.749 76.8185 251.899C78.2219 246.624 78.505 241.114 77.6496 235.724L134.316 179.057L106.679 151.421L106.678 151.421Z" fill="black"/>
</g>
<defs>
<clipPath id="clip0">
<rect width="281.76" height="280.88" fill="white"/>
</clipPath>
</defs>
</svg>
